<?xml version="1.0" standalone="no"?>
<!DOCTYPE svg PUBLIC "-//W3C//DTD SVG 20010904//EN"
 "http://www.w3.org/TR/2001/REC-SVG-20010904/DTD/svg10.dtd">
<svg version="1.0" xmlns="http://www.w3.org/2000/svg"
 width="1000.000000pt" height="1050.000000pt" viewBox="0 0 1000.000000 1050.000000"
 preserveAspectRatio="xMidYMid meet">

<g transform="translate(0.000000,1050.000000) scale(0.100000,-0.100000)"
fill="#000000" stroke="none">
<path d="M3835 8870 c-3 -6 1 -7 9 -4 18 7 21 14 7 14 -6 0 -13 -4 -16 -10z"/>
<path d="M3588 7953 c6 -2 18 -2 25 0 6 3 1 5 -13 5 -14 0 -19 -2 -12 -5z"/>
<path d="M3735 7950 c-3 -5 -1 -10 4 -10 6 0 11 5 11 10 0 6 -2 10 -4 10 -3 0
-8 -4 -11 -10z"/>
<path d="M3591 7924 c0 -11 3 -14 6 -6 3 7 2 16 -1 19 -3 4 -6 -2 -5 -13z"/>
<path d="M3736 7617 c3 -10 9 -15 12 -12 3 3 0 11 -7 18 -10 9 -11 8 -5 -6z"/>
<path d="M3751 7524 c0 -11 3 -14 6 -6 3 7 2 16 -1 19 -3 4 -6 -2 -5 -13z"/>
<path d="M3733 7455 c0 -22 2 -30 4 -17 2 12 2 30 0 40 -3 9 -5 -1 -4 -23z"/>
<path d="M3727 7358 c-10 -24 -16 -59 -16 -78 2 -31 3 -31 6 -7 2 15 9 27 14
27 5 0 9 19 10 43 0 32 2 37 9 22 6 -13 9 -15 9 -5 0 8 -3 21 -8 28 -5 9 -13
0 -24 -30z"/>
<path d="M3751 7314 c0 -11 3 -14 6 -6 3 7 2 16 -1 19 -3 4 -6 -2 -5 -13z"/>
<path d="M3767 7241 c-2 -11 -1 -23 3 -28 5 -4 5 -24 0 -43 -4 -19 -8 -28 -9
-20 -1 8 -6 32 -12 53 -10 38 -11 38 -28 18 -12 -13 -16 -31 -13 -52 3 -22 7
-27 13 -18 5 8 8 -25 7 -81 -1 -52 -3 -77 -5 -55 -7 65 -18 59 -15 -7 3 -45 1
-58 -8 -53 -9 6 -9 2 0 -14 6 -12 8 -32 5 -44 -5 -17 -4 -19 4 -7 8 11 9 3 5
-31 -8 -59 24 -130 59 -128 21 2 21 2 1 6 -21 4 -52 53 -34 53 6 0 10 -7 10
-15 0 -8 16 -22 36 -30 43 -18 68 -19 58 -4 -4 7 0 9 13 5 13 -4 25 0 34 10
12 15 11 16 -9 10 -13 -5 -22 -3 -22 3 0 6 14 11 31 11 26 0 30 3 27 23 -2 16
2 22 17 22 12 0 21 8 23 20 3 17 1 18 -8 5 -8 -12 -9 -9 -4 11 3 15 1 30 -5
33 -7 5 -11 -2 -12 -16 0 -13 -3 -17 -6 -10 -8 21 -20 13 -16 -12 3 -15 -1
-25 -11 -29 -13 -5 -15 1 -13 31 2 34 0 37 -27 40 -29 4 -29 3 -22 -40 5 -34
4 -39 -5 -24 -6 10 -9 46 -7 82 2 35 1 64 -2 64 -3 0 -5 26 -4 58 1 31 -2 71
-6 87 -5 17 -11 45 -14 63 -5 29 -3 32 22 33 27 2 27 2 2 6 -14 2 -30 11 -36
19 -10 12 -12 12 -17 -5z m-18 -125 c1 -84 -5 -66 -11 29 -3 44 -2 69 2 55 5
-14 8 -52 9 -84z m34 -100 c5 -34 4 -38 -13 -33 -14 3 -17 1 -13 -12 4 -14 3
-14 -6 -1 -6 8 -11 24 -11 35 0 17 2 17 10 5 7 -11 10 -1 10 35 1 55 12 41 23
-29z m-46 -158 c-3 -8 -6 -5 -6 6 -1 11 2 17 5 13 3 -3 4 -12 1 -19z m13 -25
c-11 -17 -11 -17 -6 0 3 10 6 24 7 30 0 9 2 9 5 0 3 -7 0 -20 -6 -30z m-10
-25 c0 -5 -4 -8 -10 -8 -5 0 -10 10 -10 23 0 18 2 19 10 7 5 -8 10 -18 10 -22z"/>
<path d="M4352 7200 c0 -14 2 -19 5 -12 2 6 2 18 0 25 -3 6 -5 1 -5 -13z"/>
<path d="M3831 7200 c-1 -3 -4 -21 -6 -39 -2 -27 -1 -31 7 -18 5 10 7 28 5 40
-2 12 -5 20 -6 17z"/>
<path d="M3170 7177 c-3 -3 -41 -6 -85 -7 -100 -3 -375 -32 -370 -39 2 -3 -17
-4 -41 -2 -25 2 -44 -1 -44 -7 0 -6 -17 -8 -42 -5 -32 5 -39 3 -33 -7 6 -10 2
-11 -18 -6 -14 3 -92 -5 -174 -20 -129 -22 -351 -54 -375 -54 -19 0 -48 -42
-48 -70 0 -48 35 -64 124 -56 l73 7 6 -118 c12 -244 -26 -1016 -68 -1398 -26
-229 -18 -426 22 -517 38 -90 184 -90 250 0 40 55 82 228 97 407 11 123 28
702 34 1155 l7 495 70 7 c39 3 99 9 135 12 90 8 159 15 198 20 21 3 32 1 33
-7 8 -110 -23 -807 -51 -1145 -5 -64 -10 -169 -10 -232 0 -63 -5 -209 -11
-325 -9 -158 -9 -220 0 -251 38 -137 145 -170 263 -81 131 100 143 213 153
1376 3 376 7 686 8 688 2 1 34 5 71 8 75 6 86 9 86 31 0 8 5 12 10 9 6 -4 10
15 10 50 0 32 -4 54 -9 50 -6 -3 -14 1 -18 10 -7 11 -37 16 -128 21 -66 4
-122 4 -125 1z m-177 -24 c-7 -2 -19 -2 -25 0 -7 3 -2 5 12 5 14 0 19 -2 13
-5z m120 0 c-7 -2 -19 -2 -25 0 -7 3 -2 5 12 5 14 0 19 -2 13 -5z m277 -3 c0
-5 -2 -10 -4 -10 -3 0 -8 5 -11 10 -3 6 -1 10 4 10 6 0 11 -4 11 -10z m23
-127 c-7 -2 -19 -2 -25 0 -7 3 -2 5 12 5 14 0 19 -2 13 -5z m-176 -115 c-3 -8
-6 -5 -6 6 -1 11 2 17 5 13 3 -3 4 -12 1 -19z"/>
<path d="M3840 7100 l0 -40 40 0 40 0 0 -41 c0 -36 -2 -41 -20 -36 -25 7 -34
-7 -15 -23 17 -14 69 -5 60 10 -3 6 -1 10 4 10 7 0 11 30 11 80 l0 80 -60 0
-60 0 0 -40z"/>
<path d="M4001 7104 c0 -11 3 -14 6 -6 3 7 2 16 -1 19 -3 4 -6 -2 -5 -13z"/>
<path d="M4391 6994 c0 -11 3 -14 6 -6 3 7 2 16 -1 19 -3 4 -6 -2 -5 -13z"/>
<path d="M4371 6984 c0 -11 3 -14 6 -6 3 7 2 16 -1 19 -3 4 -6 -2 -5 -13z"/>
<path d="M5157 6969 c7 -7 15 -10 18 -7 3 3 -2 9 -12 12 -14 6 -15 5 -6 -5z"/>
<path d="M4573 6905 c-19 -21 -16 -27 7 -15 11 6 20 15 20 20 0 14 -13 12 -27
-5z"/>
<path d="M3957 6903 c-6 -11 9 -49 23 -58 7 -5 9 2 5 22 -5 22 -4 25 5 13 10
-13 11 -13 7 0 -2 8 -12 14 -22 12 -10 -2 -14 1 -10 7 3 6 4 11 1 11 -3 0 -7
-3 -9 -7z"/>
<path d="M4585 6880 c-10 -11 -14 -20 -8 -20 5 0 18 9 28 20 10 11 14 20 8 20
-5 0 -18 -9 -28 -20z"/>
<path d="M4380 6860 c6 -11 13 -20 16 -20 2 0 0 9 -6 20 -6 11 -13 20 -16 20
-2 0 0 -9 6 -20z"/>
<path d="M3927 6814 c7 -3 9 -13 6 -22 -6 -15 -5 -15 11 -3 13 11 14 16 4 22
-7 5 -17 8 -23 8 -5 0 -5 -3 2 -5z"/>
<path d="M4045 6395 c-5 -2 -23 -6 -38 -9 -15 -4 -25 -11 -22 -16 3 -6 -1 -7
-10 -4 -22 9 -184 -45 -223 -73 -27 -20 -62 -78 -61 -100 1 -3 -4 -9 -9 -12
-9 -5 -60 -126 -66 -154 -2 -7 -6 -19 -9 -27 -18 -44 -37 -131 -32 -140 4 -6
2 -17 -4 -24 -16 -19 -9 -368 6 -373 7 -3 9 -11 6 -19 -7 -20 43 -156 68 -182
10 -12 19 -25 19 -29 0 -12 62 -63 104 -85 53 -27 134 -50 148 -42 6 4 8 3 5
-3 -9 -15 80 -24 127 -13 45 10 106 41 106 53 0 4 5 5 12 1 7 -5 9 -2 5 9 -3
9 1 21 11 29 15 12 16 11 3 -4 -8 -11 -9 -18 -3 -18 12 0 38 40 34 53 -1 5 2
6 7 3 12 -8 66 84 62 108 -1 11 2 16 8 12 6 -4 15 12 22 40 11 42 17 49 58 67
25 11 48 23 51 27 3 4 14 10 25 14 11 3 31 16 45 27 14 11 19 18 13 14 -7 -3
-21 -1 -30 5 -17 11 -17 11 1 6 25 -8 104 33 129 66 14 19 24 25 32 18 7 -5
15 -7 19 -3 3 4 3 -8 0 -27 -5 -22 -4 -31 3 -27 14 9 25 -35 13 -47 -7 -7 -10
-3 -10 9 0 10 -2 16 -5 13 -8 -8 7 -68 15 -63 4 3 10 -2 13 -10 4 -9 1 -12 -9
-8 -7 3 -14 3 -14 0 0 -15 51 -115 67 -132 11 -11 19 -23 19 -26 -2 -13 54
-69 94 -94 28 -18 59 -28 94 -30 49 -3 49 -2 11 5 -35 7 -33 8 20 6 60 -3 111
15 99 36 -7 11 14 38 29 38 6 0 3 -6 -8 -13 -11 -8 -14 -17 -8 -20 14 -9 78
63 78 87 0 11 7 21 15 23 13 4 13 3 0 -6 -8 -5 -11 -13 -7 -18 9 -8 27 15 27
34 0 6 -8 14 -17 17 -10 3 -6 4 9 2 15 -2 26 0 23 4 -2 3 3 19 11 34 7 16 14
36 14 45 1 13 3 13 15 -3 12 -16 15 -17 15 -4 0 9 -4 18 -8 20 -4 2 -2 14 5
28 11 21 13 22 13 5 0 -18 1 -18 16 -3 23 22 27 68 7 68 -12 0 -13 -3 -3 -14
9 -11 9 -19 0 -33 -10 -16 -11 -16 -7 5 7 29 -8 28 -35 -3 -11 -13 -24 -22
-28 -20 -4 3 -7 27 -6 55 1 27 0 50 -1 50 -5 0 -26 -54 -25 -62 1 -5 -2 -8 -7
-8 -5 0 -12 -7 -15 -16 -3 -8 -2 -12 4 -9 6 3 10 -1 10 -9 0 -8 -4 -18 -10
-21 -5 -3 -10 0 -10 7 0 10 -2 10 -9 -1 -6 -9 -5 -24 0 -39 9 -24 0 -41 -23
-42 -12 0 -9 18 4 22 6 2 9 9 7 15 -2 5 -18 -5 -36 -24 -17 -19 -25 -32 -17
-29 9 3 12 1 9 -4 -3 -6 -27 -10 -53 -10 -43 1 -49 4 -70 37 -21 33 -23 46
-21 157 2 149 -3 169 -47 192 -23 13 -34 26 -34 41 0 12 -9 27 -20 33 -18 9
-20 21 -20 100 l0 90 65 0 c61 0 65 -1 65 -22 0 -13 4 -28 8 -35 4 -6 8 16 8
50 0 40 -1 51 -5 32 -5 -25 -8 -27 -14 -12 -8 21 1 67 13 67 15 0 33 71 21 83
-12 12 -18 -1 -23 -48 -2 -24 -8 -31 -30 -33 -26 -3 -28 -1 -28 32 0 31 3 36
23 36 12 0 28 9 35 20 11 18 10 19 -21 13 -17 -3 -36 -10 -42 -14 -18 -17 -80
-10 -93 11 -22 35 -34 24 -26 -25 5 -37 3 -45 -9 -45 -13 0 -15 -10 -10 -57 3
-32 10 -59 15 -61 13 -5 10 -40 -4 -45 -10 -4 -10 -6 0 -6 6 -1 12 -10 12 -22
0 -11 -4 -17 -10 -14 -14 9 -12 -39 2 -53 9 -9 7 -12 -10 -12 -19 0 -22 5 -22
40 0 39 -9 47 -43 41 -5 -1 -5 8 -2 20 5 14 3 19 -3 15 -6 -3 -12 2 -14 11 -2
10 -4 -15 -3 -55 0 -39 -1 -72 -3 -72 -1 0 -7 10 -13 23 -9 21 -9 21 -4 -3 18
-80 18 -83 7 -76 -6 4 -9 13 -5 21 3 8 0 15 -7 15 -8 0 -10 -10 -5 -32 5 -25
4 -29 -4 -18 -9 13 -11 13 -11 -1 0 -9 -9 -24 -20 -34 -16 -15 -18 -21 -7 -33
10 -13 9 -15 -4 -10 -11 4 -31 -6 -55 -28 -22 -19 -51 -42 -66 -50 -16 -8 -28
-17 -28 -20 0 -3 5 -2 12 2 7 4 8 3 4 -5 -4 -6 -12 -9 -17 -5 -5 3 -25 -10
-45 -30 -25 -25 -33 -29 -29 -15 4 13 2 19 -7 17 -9 -2 -14 10 -16 37 -1 24 1
35 6 27 5 -7 10 16 12 60 7 130 0 433 -9 407 -8 -24 -30 30 -31 76 -1 44 -18
110 -19 77 -1 -7 -5 -11 -11 -7 -5 3 -7 12 -3 21 3 8 -3 24 -12 34 -20 22 -55
27 -55 8 0 -10 -3 -9 -9 1 -7 11 -11 10 -20 -5 -9 -17 -10 -17 -11 -1 0 9 6
17 13 18 6 0 -1 7 -18 14 -16 8 -23 14 -15 15 9 0 25 -7 36 -15 12 -8 24 -12
27 -8 11 10 -3 23 -24 23 -11 0 -18 4 -14 9 3 6 -5 9 -17 9 -13 -1 -52 0 -88
1 -53 3 -59 5 -35 11 27 7 28 8 5 8 -14 0 -29 -1 -35 -3z m32 -31 c-3 -3 -12
-4 -19 -1 -8 3 -5 6 6 6 11 1 17 -2 13 -5z m30 -20 c-3 -3 -12 -4 -19 -1 -8 3
-5 6 6 6 11 1 17 -2 13 -5z m193 -39 c13 -16 6 -35 -13 -34 -9 0 -9 2 1 6 17
7 15 23 -3 23 -8 0 -15 5 -15 10 0 15 16 12 30 -5z m-536 -24 c3 -5 -1 -11 -9
-14 -9 -4 -12 -1 -8 9 6 16 10 17 17 5z m-37 -53 c-3 -7 -5 -2 -5 12 0 14 2
19 5 13 2 -7 2 -19 0 -25z m414 20 c0 -10 2 -10 6 0 3 9 12 7 33 -8 34 -24 40
-25 41 -2 0 14 2 14 9 -3 12 -27 12 -43 0 -25 -13 19 -13 -1 -1 -32 20 -50 24
-64 26 -90 5 -51 16 -98 24 -98 4 0 11 -62 14 -137 3 -76 8 -147 12 -158 5
-15 4 -16 -3 -6 -8 10 -11 6 -17 -18 -4 -21 -2 -37 7 -48 11 -14 11 -16 -1 -8
-11 6 -13 2 -7 -19 4 -18 3 -25 -4 -21 -6 4 -10 -4 -10 -19 0 -31 -10 -34 -84
-24 -85 12 -116 33 -151 103 -29 58 -30 64 -31 212 0 84 2 150 6 148 7 -4 25
90 21 109 -3 13 31 99 46 117 7 9 10 19 6 24 -5 4 3 4 16 0 16 -5 21 -4 17 4
-4 6 0 11 8 11 9 0 16 -6 17 -12z m-81 -18 c0 -5 -5 -10 -11 -10 -5 0 -7 5 -4
10 3 6 8 10 11 10 2 0 4 -4 4 -10z m270 -27 c-11 -17 -11 -17 -6 0 3 10 6 24
7 30 0 9 2 9 5 0 3 -7 0 -20 -6 -30z m-291 -35 c-9 -16 -14 -19 -17 -9 -2 7 2
17 9 22 20 13 21 11 8 -13z m-32 -10 c-3 -8 -6 -5 -6 6 -1 11 2 17 5 13 3 -3
4 -12 1 -19z m263 18 c0 -3 -4 -8 -10 -11 -5 -3 -10 -1 -10 4 0 6 5 11 10 11
6 0 10 -2 10 -4z m10 -41 c7 -9 8 -15 2 -15 -5 0 -12 7 -16 15 -3 8 -4 15 -2
15 2 0 9 -7 16 -15z m57 -27 c-3 -8 -6 -5 -6 6 -1 11 2 17 5 13 3 -3 4 -12 1
-19z m-24 -13 c-3 -9 -8 -14 -10 -11 -3 3 -2 9 2 15 9 16 15 13 8 -4z m-24
-32 c0 -5 -4 -17 -9 -28 -8 -18 -9 -17 -9 8 -1 15 4 27 9 27 6 0 10 -3 9 -7z
m418 -165 c-3 -8 -6 -5 -6 6 -1 11 2 17 5 13 3 -3 4 -12 1 -19z m10 -70 c-3
-7 -5 -2 -5 12 0 14 2 19 5 13 2 -7 2 -19 0 -25z m17 -91 c2 -20 0 -37 -5 -37
-5 0 -9 19 -9 42 0 49 7 47 14 -5z m66 1 c0 -49 -5 -47 -14 5 -4 23 -3 37 4
37 5 0 10 -19 10 -42z m-498 -90 c-7 -7 -12 -8 -12 -2 0 14 12 26 19 19 2 -3
-1 -11 -7 -17z m53 -38 c3 -5 1 -10 -4 -10 -6 0 -11 5 -11 10 0 6 2 10 4 10 3
0 8 -4 11 -10z m190 1 c3 -5 1 -12 -5 -16 -5 -3 -10 1 -10 9 0 18 6 21 15 7z
m148 -6 c4 -8 2 -17 -3 -20 -6 -4 -10 3 -10 14 0 25 6 27 13 6z m237 -25 c0
-29 -4 -40 -15 -40 -11 0 -15 11 -15 40 0 29 4 40 15 40 11 0 15 -11 15 -40z
m-340 21 c0 -5 -7 -12 -16 -15 -14 -5 -15 -4 -4 9 14 17 20 19 20 6z m-640
-103 c64 -52 76 -59 113 -65 20 -3 40 -10 43 -14 3 -5 26 -9 52 -10 54 -1 76
-8 80 -27 1 -8 -2 -11 -9 -6 -8 5 -10 1 -7 -14 4 -16 2 -19 -10 -15 -11 5 -14
2 -9 -11 5 -11 3 -15 -5 -10 -8 5 -9 1 -4 -12 4 -10 4 -16 1 -12 -3 3 -27 -17
-53 -44 -25 -27 -60 -55 -76 -62 -72 -29 -145 16 -166 104 -11 46 -8 190 5
210 9 14 14 13 45 -12z m1284 -35 c-7 -2 -10 -14 -8 -26 5 -22 5 -22 -5 1 -11
23 -31 30 -31 10 0 -6 -2 -9 -5 -7 -2 3 1 20 7 37 l12 32 21 -21 c13 -14 16
-23 9 -26z m-28 -60 c-10 -10 -19 5 -10 18 6 11 8 11 12 0 2 -7 1 -15 -2 -18z
m-222 -23 c-6 -5 -24 21 -24 34 0 6 6 1 14 -10 8 -10 12 -21 10 -24z m196 10
c0 -5 -10 -10 -22 -10 -19 0 -20 2 -8 10 19 13 30 13 30 0z m-452 -35 c-3 -3
-9 2 -12 12 -6 14 -5 15 5 6 7 -7 10 -15 7 -18z m415 -45 c3 -11 1 -20 -4 -20
-5 0 -9 9 -9 20 0 11 2 20 4 20 2 0 6 -9 9 -20z m-323 -25 c0 -7 -30 -13 -34
-7 -3 4 4 9 15 9 10 1 19 0 19 -2z m307 -15 c3 -10 2 -11 -4 -4 -4 7 -19 14
-33 17 -22 4 -21 5 4 4 17 -1 31 -9 33 -17z m-876 -17 c-12 -20 -14 -14 -5 12
4 9 9 14 11 11 3 -2 0 -13 -6 -23z m614 7 c3 -5 2 -10 -4 -10 -5 0 -13 5 -16
10 -3 6 -2 10 4 10 5 0 13 -4 16 -10z m-29 -15 c20 -19 4 -20 -22 0 -12 9 -14
14 -6 15 7 0 20 -7 28 -15z m101 -41 c-3 -3 -12 -4 -19 -1 -8 3 -5 6 6 6 11 1
17 -2 13 -5z m60 0 c-3 -3 -12 -4 -19 -1 -8 3 -5 6 6 6 11 1 17 -2 13 -5z"/>
<path d="M4271 5964 c0 -11 3 -14 6 -6 3 7 2 16 -1 19 -3 4 -6 -2 -5 -13z"/>
<path d="M946 6131 c-150 -151 -232 -252 -272 -337 -37 -79 -40 -120 -14 -182
25 -57 60 -92 165 -167 39 -27 72 -52 75 -55 15 -17 74 -52 110 -65 58 -21 80
-8 80 47 0 40 -5 47 -93 133 -51 49 -96 98 -100 107 -4 12 31 67 118 185 134
180 185 266 185 307 0 32 -37 131 -56 151 -33 33 -57 18 -198 -124z"/>
<path d="M4846 6252 c-2 -4 4 -9 15 -9 10 -1 19 2 19 8 0 11 -27 12 -34 1z"/>
<path d="M1513 6163 c-43 -48 -86 -97 -96 -108 -50 -54 -141 -186 -170 -244
-26 -53 -33 -80 -35 -141 -5 -115 19 -144 216 -275 45 -31 111 -70 147 -87 53
-27 69 -30 92 -22 21 7 29 17 31 40 4 41 -27 78 -133 154 -45 33 -85 67 -89
76 -6 14 33 102 74 169 79 128 190 351 190 382 0 62 -71 143 -126 143 -15 0
-46 -26 -101 -87z"/>
<path d="M4775 6240 c-3 -5 -2 -10 4 -10 5 0 13 5 16 10 3 6 2 10 -4 10 -5 0
-13 -4 -16 -10z"/>
<path d="M4996 6217 c3 -10 9 -15 12 -12 3 3 0 11 -7 18 -10 9 -11 8 -5 -6z"/>
<path d="M4726 6172 c-11 -23 -16 -45 -13 -49 4 -3 7 2 7 13 0 16 2 16 10 4
17 -27 35 4 24 41 l-9 33 -19 -42z"/>
<path d="M4760 6201 c0 -6 5 -13 10 -16 6 -3 10 1 10 9 0 9 -4 16 -10 16 -5 0
-10 -4 -10 -9z"/>
<path d="M4360 6163 c0 -24 3 -33 9 -25 7 12 4 62 -5 62 -2 0 -4 -17 -4 -37z"/>
<path d="M5406 6067 c3 -10 9 -15 12 -12 3 3 0 11 -7 18 -10 9 -11 8 -5 -6z"/>
<path d="M4701 6036 c-1 -24 1 -27 14 -16 16 13 21 35 6 26 -5 -4 -12 0 -14 6
-3 7 -6 0 -6 -16z"/>
<path d="M5622 6030 c0 -14 2 -19 5 -12 2 6 2 18 0 25 -3 6 -5 1 -5 -13z"/>
<path d="M5390 5970 c-9 -16 -8 -18 5 -14 8 4 15 12 15 20 0 20 -7 17 -20 -6z"/>
<path d="M4965 5861 c0 -44 3 -83 8 -87 4 -4 7 32 7 79 0 48 -3 87 -7 87 -5 0
-8 -36 -8 -79z"/>
<path d="M5322 5808 c-17 -17 -15 -48 4 -48 13 0 14 3 5 14 -7 9 -8 17 -2 20
5 3 12 0 14 -6 4 -8 6 -7 6 4 1 22 -13 30 -27 16z"/>
<path d="M5389 5768 c0 -2 -3 -18 -5 -35 -4 -25 -1 -33 11 -33 12 0 15 9 13
35 -1 19 -6 35 -10 35 -4 0 -8 -1 -9 -2z"/>
<path d="M5310 5710 c0 -5 5 -10 11 -10 5 0 7 5 4 10 -3 6 -8 10 -11 10 -2 0
-4 -4 -4 -10z"/>
<path d="M5601 5654 c0 -11 3 -14 6 -6 3 7 2 16 -1 19 -3 4 -6 -2 -5 -13z"/>
<path d="M5257 5640 c-3 -12 -10 -19 -15 -16 -5 3 -7 -6 -4 -22 5 -22 7 -23
10 -7 9 45 22 37 17 -10 -2 -29 -1 -39 3 -25 4 14 14 25 22 25 8 0 16 8 18 18
2 9 -2 17 -8 17 -6 0 -9 -4 -5 -9 3 -5 1 -12 -5 -16 -6 -3 -10 4 -10 17 0 13
-4 29 -9 36 -6 10 -10 8 -14 -8z"/>
<path d="M5328 5613 c6 -2 18 -2 25 0 6 3 1 5 -13 5 -14 0 -19 -2 -12 -5z"/>
<path d="M5230 5550 c0 -5 5 -10 11 -10 5 0 7 5 4 10 -3 6 -8 10 -11 10 -2 0
-4 -4 -4 -10z"/>
<path d="M5383 5503 c-1 -33 0 -35 7 -13 11 34 12 50 2 50 -4 0 -8 -17 -9 -37z"/>
<path d="M5410 5510 c0 -5 5 -10 10 -10 6 0 10 5 10 10 0 6 -4 10 -10 10 -5 0
-10 -4 -10 -10z"/>
<path d="M5970 5498 c-12 -22 -12 -22 6 -6 10 10 15 20 12 24 -4 3 -12 -5 -18
-18z"/>
<path d="M5404 5448 c-1 -31 1 -37 7 -23 10 26 11 65 1 65 -4 0 -8 -19 -8 -42z"/>
<path d="M5432 5465 c0 -16 2 -22 5 -12 2 9 2 23 0 30 -3 6 -5 -1 -5 -18z"/>
<path d="M5604 5436 c1 -30 4 -57 7 -60 3 -3 5 19 4 49 -1 31 -5 58 -8 61 -2
3 -4 -20 -3 -50z"/>
<path d="M5927 5477 c-3 -8 1 -14 8 -14 7 0 11 6 8 14 -3 7 -6 13 -8 13 -2 0
-5 -6 -8 -13z"/>
<path d="M5421 5414 c0 -11 3 -14 6 -6 3 7 2 16 -1 19 -3 4 -6 -2 -5 -13z"/>
<path d="M5892 5414 c-7 -8 -8 -14 -3 -14 10 0 25 19 20 25 -2 1 -10 -3 -17
-11z"/>
<path d="M5444 5366 c-10 -8 -17 -17 -14 -19 3 -3 16 3 29 14 27 22 15 26 -15
5z"/>
<path d="M5515 5372 c-11 -8 -14 -132 -2 -132 4 0 7 10 7 23 0 38 12 67 26 67
8 0 14 10 14 25 0 25 -23 34 -45 17z"/>
<path d="M5870 5369 c0 -5 5 -7 10 -4 6 3 10 8 10 11 0 2 -4 4 -10 4 -5 0 -10
-5 -10 -11z"/>
<path d="M5942 5360 c7 -10 14 -18 15 -16 6 6 -9 36 -18 36 -5 0 -4 -9 3 -20z"/>
<path d="M6041 5364 c0 -11 3 -14 6 -6 3 7 2 16 -1 19 -3 4 -6 -2 -5 -13z"/>
<path d="M5632 5350 c0 -14 2 -19 5 -12 2 6 2 18 0 25 -3 6 -5 1 -5 -13z"/>
<path d="M5601 5348 c0 -10 -5 -18 -11 -18 -5 0 -10 -14 -10 -31 0 -34 20 -31
21 4 0 12 3 16 6 10 2 -7 9 -13 15 -13 7 0 7 4 0 13 -5 6 -12 21 -15 32 -4 16
-5 17 -6 3z"/>
<path d="M5477 5325 c3 -14 10 -25 15 -25 13 0 6 43 -8 47 -7 2 -10 -6 -7 -22z"/>
<path d="M5450 5328 c0 -7 11 -26 25 -43 l25 -30 -21 43 c-22 43 -29 51 -29
30z"/>
<path d="M5835 5323 c4 -10 8 -30 10 -46 2 -31 15 -48 22 -29 3 6 10 9 15 6 7
-5 8 -2 4 5 -5 7 0 19 10 27 18 15 18 15 1 10 -12 -4 -27 4 -44 20 -19 19 -24
21 -18 7z m35 -48 c-7 -9 -15 -13 -17 -11 -7 7 7 26 19 26 6 0 6 -6 -2 -15z"/>
<path d="M5926 5323 c-6 -14 -5 -15 5 -6 7 7 10 15 7 18 -3 3 -9 -2 -12 -12z"/>
<path d="M6035 5330 c3 -5 8 -10 11 -10 2 0 4 5 4 10 0 6 -5 10 -11 10 -5 0
-7 -4 -4 -10z"/>
<path d="M5805 5321 c-3 -5 -2 -12 3 -15 5 -3 9 1 9 9 0 17 -3 19 -12 6z"/>
<path d="M5885 5320 c3 -5 8 -10 11 -10 2 0 4 5 4 10 0 6 -5 10 -11 10 -5 0
-7 -4 -4 -10z"/>
<path d="M6331 5314 c0 -11 3 -14 6 -6 3 7 2 16 -1 19 -3 4 -6 -2 -5 -13z"/>
<path d="M5637 5306 c-12 -30 -8 -48 10 -44 9 2 17 13 18 25 1 12 -2 20 -6 17
-4 -2 -9 1 -11 8 -3 7 -7 5 -11 -6z"/>
<path d="M6061 5304 c0 -11 3 -14 6 -6 3 7 2 16 -1 19 -3 4 -6 -2 -5 -13z"/>
<path d="M6335 5280 c3 -5 8 -10 11 -10 2 0 4 5 4 10 0 6 -5 10 -11 10 -5 0
-7 -4 -4 -10z"/>
<path d="M5757 5266 c-4 -10 -17 -14 -41 -12 -31 3 -34 1 -26 -14 8 -14 5 -19
-14 -24 -14 -3 -32 -3 -40 0 -9 3 -16 2 -16 -4 0 -5 15 -12 33 -15 17 -4 49
-11 70 -16 20 -5 37 -6 37 -1 0 4 -19 12 -42 18 l-43 11 40 -6 c22 -3 49 -5
60 -5 16 1 17 -1 5 -8 -8 -5 -11 -12 -8 -16 4 -3 14 1 23 9 14 14 13 16 -7 23
-13 4 -31 8 -41 9 -22 2 -43 22 -33 32 4 4 12 1 17 -7 7 -10 12 -11 15 -4 5
13 44 7 44 -6 0 -9 58 -19 65 -12 11 11 -19 32 -46 32 -16 0 -28 5 -26 11 3
17 -20 22 -26 5z"/>
<path d="M5540 5245 c0 -7 7 -20 15 -28 11 -11 11 -17 3 -19 -7 -3 -5 -7 6
-11 11 -4 15 -3 10 4 -7 11 13 7 66 -13 24 -10 24 -11 5 -19 -17 -8 -16 -9 5
-4 14 2 32 5 40 5 23 0 -6 18 -53 30 -22 7 -35 15 -31 22 4 6 -1 8 -15 3 -19
-6 -26 2 -23 27 1 3 -5 9 -13 12 -9 3 -15 0 -15 -9z"/>
<path d="M6110 5231 c0 -13 29 -35 37 -27 3 3 1 6 -5 6 -7 0 -12 7 -12 15 0 8
-4 15 -10 15 -5 0 -10 -4 -10 -9z"/>
<path d="M6202 5206 c7 -8 15 -12 17 -11 5 6 -10 25 -20 25 -5 0 -4 -6 3 -14z"/>
<path d="M6200 5175 c19 -14 36 -25 39 -25 10 0 -53 49 -63 50 -6 0 5 -11 24
-25z"/>
<path d="M6538 5183 c7 -3 16 -2 19 1 4 3 -2 6 -13 5 -11 0 -14 -3 -6 -6z"/>
<path d="M6513 5163 c9 -2 25 -2 35 0 9 3 1 5 -18 5 -19 0 -27 -2 -17 -5z"/>
<path d="M6438 5153 c7 -3 16 -2 19 1 4 3 -2 6 -13 5 -11 0 -14 -3 -6 -6z"/>
<path d="M6210 5136 c0 -2 7 -7 16 -10 8 -3 12 -2 9 4 -6 10 -25 14 -25 6z"/>
<path d="M6318 5123 c6 -2 18 -2 25 0 6 3 1 5 -13 5 -14 0 -19 -2 -12 -5z"/>
<path d="M6360 5110 c-18 -12 -2 -12 25 0 13 6 15 9 5 9 -8 0 -22 -4 -30 -9z"/>
<path d="M6480 5109 c0 -5 5 -7 10 -4 6 3 10 8 10 11 0 2 -4 4 -10 4 -5 0 -10
-5 -10 -11z"/>
<path d="M5055 4754 c-129 -16 -137 -18 -152 -27 -6 -4 -19 -4 -30 -1 -15 5
-16 4 -3 -6 12 -9 8 -10 -17 -5 -23 5 -33 3 -33 -5 0 -8 -9 -10 -26 -6 -19 5
-24 4 -18 -5 5 -9 2 -10 -11 -6 -9 4 -23 3 -29 -2 -6 -4 -29 -14 -51 -21 -53
-17 -219 -93 -223 -102 -2 -5 -8 -8 -14 -8 -15 0 -124 -68 -204 -127 -102 -75
-337 -313 -335 -338 1 -3 -8 -14 -19 -25 -12 -12 -18 -26 -14 -32 4 -6 3 -8
-4 -4 -25 15 -174 -285 -222 -447 -144 -489 -78 -967 192 -1401 28 -44 54 -83
57 -86 4 -3 30 -34 58 -70 60 -76 192 -206 278 -271 189 -145 430 -255 665
-303 165 -34 267 -42 430 -35 344 16 664 134 937 346 127 98 333 316 318 337
-3 3 -2 4 2 1 9 -7 53 57 46 68 -3 6 -2 7 4 4 12 -7 115 169 117 200 0 11 4
19 7 17 11 -6 50 113 43 132 -4 13 -3 15 3 7 12 -17 55 110 46 134 -4 11 -3
14 5 9 7 -4 12 -6 12 -4 0 2 9 66 20 143 11 77 18 153 15 170 -4 24 -3 26 4
10 6 -13 8 17 5 85 -3 58 -5 116 -5 130 -1 14 -3 40 -6 59 -3 26 -7 31 -14 20
-9 -13 -6 14 8 64 2 9 -1 17 -7 17 -8 0 -10 10 -7 26 6 31 -10 94 -23 94 -6 0
-10 13 -10 29 0 22 -4 29 -17 27 -9 -2 -20 -11 -25 -22 -7 -17 -8 -16 -4 3 2
12 -2 27 -10 34 -19 15 -18 45 1 53 14 5 14 9 0 36 -8 16 -12 30 -8 30 4 0 2
5 -5 12 -7 7 -12 20 -12 30 0 26 -18 22 -23 -4 -2 -13 -5 -1 -6 25 0 27 -4 46
-9 43 -4 -2 -7 15 -7 39 0 24 -3 41 -7 38 -5 -2 -8 4 -8 15 0 10 -9 27 -20 37
-12 10 -18 25 -15 33 3 7 -2 23 -9 34 -15 21 -15 21 -21 -5 -4 -14 -4 -30 -1
-35 3 -4 -9 -6 -25 -4 -21 3 -29 9 -25 19 3 8 6 17 6 19 0 2 7 4 15 4 16 0 22
55 8 63 -9 4 -43 -29 -42 -40 0 -4 -4 -9 -10 -11 -6 -2 -11 3 -11 11 0 9 9 19
20 22 11 3 20 11 20 17 0 5 -7 8 -15 4 -9 -3 -15 0 -15 10 0 11 6 14 16 10 10
-4 14 -1 11 6 -2 7 -11 12 -20 10 -12 -2 -15 3 -12 19 2 12 2 19 -2 15 -3 -3
-13 -1 -20 6 -11 9 -16 9 -23 -1 -12 -20 0 -51 20 -51 10 0 20 -9 23 -19 6
-24 0 -31 -25 -31 -13 0 -18 7 -18 25 0 18 -5 25 -19 25 -15 0 -19 7 -19 38 0
24 3 31 7 19 6 -16 9 -16 18 -5 6 7 14 23 18 36 5 19 3 23 -10 20 -11 -2 -19
4 -21 15 -1 11 -6 22 -10 25 -4 4 -4 -1 -1 -10 3 -9 -1 -22 -9 -28 -8 -7 -14
-19 -14 -27 0 -8 -4 -11 -10 -8 -5 3 -10 15 -10 25 0 13 -5 17 -15 14 -11 -4
-15 1 -16 17 0 13 -3 18 -6 12 -8 -21 -33 -15 -33 8 0 16 5 20 20 16 15 -4 20
0 20 14 0 10 4 19 9 19 5 0 7 -9 4 -20 -3 -11 -2 -28 2 -37 6 -15 9 -13 16 12
8 27 5 34 -31 68 -35 33 -91 53 -75 27 3 -6 -6 -15 -20 -20 -34 -13 -35 -13
-35 5 0 8 7 15 15 15 9 0 19 10 24 22 5 14 10 17 15 10 4 -7 12 -12 19 -12 6
0 2 6 -9 14 -12 9 -23 11 -29 5 -5 -5 -16 -9 -25 -9 -13 0 -13 2 0 10 8 5 11
12 7 17 -4 4 -17 2 -27 -5 -26 -16 -35 -15 -21 1 15 19 2 28 -21 16 -11 -6
-26 -8 -34 -5 -17 7 -19 35 -1 37 40 5 54 2 70 -15 9 -11 19 -17 22 -14 6 6
-32 41 -48 44 -7 1 -21 6 -31 10 -11 4 -17 4 -14 -2 4 -5 -8 -10 -25 -11 l-32
-2 40 19 c22 11 33 19 23 20 -9 0 -18 6 -21 13 -3 9 -8 9 -21 -2 -14 -12 -21
-12 -44 -1 -26 13 -26 14 -4 18 12 2 22 7 22 12 0 4 -10 6 -22 3 -19 -4 -20
-3 -8 6 13 9 13 11 -2 11 -9 0 -18 3 -21 8 -2 4 -2 1 -1 -5 3 -10 -1 -10 -16
-1 -14 9 -22 9 -35 -2 -13 -10 -13 -15 -3 -21 9 -6 9 -9 1 -9 -20 0 -24 17 -8
33 19 20 19 31 -1 23 -12 -5 -14 -1 -10 17 3 12 3 16 0 10 -4 -10 -12 -9 -35
2 -16 9 -29 21 -29 27 0 6 -3 8 -7 5 -3 -4 -15 0 -25 10 -11 9 -18 11 -18 5 0
-7 -7 -12 -16 -12 -8 0 -13 -4 -10 -9 3 -5 -1 -14 -9 -21 -9 -8 -15 -8 -15 -2
0 6 6 13 13 15 9 4 8 6 -2 6 -9 1 -6 8 10 22 l24 21 -24 -7 c-16 -5 -21 -4
-17 4 7 11 -12 16 -43 12 -7 -2 -10 2 -6 8 3 6 0 11 -7 11 -7 0 -24 3 -38 5
-22 5 -22 4 -5 -4 14 -7 16 -10 5 -10 -9 -1 -25 6 -37 14 -12 8 -30 12 -40 9
-15 -5 -15 -4 -3 5 22 15 2 27 -22 12 -17 -11 -22 -11 -29 0 -4 8 -11 10 -14
7 -4 -4 -24 2 -46 14 -29 15 -60 20 -129 21 -49 1 -90 5 -90 10 0 11 -161 6
-285 -9z m208 -1 c-13 -2 -35 -2 -50 0 -16 2 -5 4 22 4 28 0 40 -2 28 -4z
m384 -69 c-3 -3 -12 -4 -19 -1 -8 3 -5 6 6 6 11 1 17 -2 13 -5z m260 -71 c-4
-3 0 -11 8 -17 12 -9 10 -11 -14 -13 -29 -2 -29 -1 -13 17 9 11 18 20 21 20 2
0 1 -3 -2 -7z m88 -133 c3 -5 1 -10 -4 -10 -6 0 -11 5 -11 10 0 6 2 10 4 10 3
0 8 -4 11 -10z m95 -10 c0 -5 -5 -10 -11 -10 -5 0 -7 5 -4 10 3 6 8 10 11 10
2 0 4 -4 4 -10z m-10 -150 c0 -11 -4 -20 -10 -20 -5 0 -10 2 -10 4 0 2 -3 11
-6 20 -4 11 -1 16 10 16 9 0 16 -8 16 -20z m300 -20 c0 -5 -7 -7 -15 -4 -8 4
-15 8 -15 10 0 2 7 4 15 4 8 0 15 -4 15 -10z m30 -17 c0 -1 -3 -8 -6 -16 -4
-12 -13 -13 -45 -5 -52 14 -49 23 6 23 25 0 45 -1 45 -2z m-1383 -77 c50 0 89
-4 87 -7 -2 -4 3 -12 11 -19 8 -7 15 -25 15 -41 0 -53 -22 -58 -254 -59 -115
-1 -215 -4 -222 -7 -15 -5 -14 -117 2 -331 l6 -82 45 25 c120 71 235 84 319
35 139 -79 197 -218 193 -461 -2 -77 -6 -134 -11 -127 -5 8 -8 1 -8 -18 0 -49
-37 -155 -68 -195 -100 -132 -190 -191 -334 -219 -115 -23 -255 -5 -319 40
-74 53 -128 165 -136 280 -6 81 -1 93 47 104 38 9 50 -5 59 -70 12 -80 32
-124 80 -177 64 -69 153 -83 227 -34 32 21 74 91 100 167 38 113 55 338 33
456 -14 78 -47 152 -70 159 -36 12 -87 -31 -171 -142 -67 -88 -108 -98 -201
-51 -69 35 -77 60 -77 253 0 214 23 499 41 521 12 15 40 16 264 9 137 -4 291
-8 342 -9z m790 -42 c-3 -3 -12 -4 -19 -1 -8 3 -5 6 6 6 11 1 17 -2 13 -5z
m122 -18 c58 -17 66 -18 51 -6 -13 9 -12 10 5 7 11 -2 19 -9 18 -15 -2 -7 4
-12 12 -12 9 0 12 6 9 15 -4 8 -2 15 3 15 5 0 10 -12 11 -27 1 -16 7 -30 12
-31 17 -6 48 -44 69 -84 8 -15 18 -25 23 -22 5 3 9 0 7 -7 -4 -32 1 -50 13
-43 8 5 9 2 5 -9 -10 -26 3 -79 17 -68 8 7 10 -10 9 -62 -2 -40 1 -66 5 -59 5
8 9 -8 10 -40 1 -29 4 -126 7 -216 14 -350 -58 -664 -187 -822 -66 -80 -134
-113 -237 -113 -129 0 -222 57 -290 179 -32 56 -44 86 -82 214 -68 230 -66
430 7 720 15 58 27 118 27 133 0 20 2 24 8 15 6 -9 9 -7 9 9 0 12 4 23 8 25 5
2 20 26 34 54 19 39 23 57 15 70 -8 15 -7 17 3 7 12 -11 29 4 80 71 13 18 13
19 0 11 -10 -5 -12 -5 -5 3 6 5 19 12 30 14 11 2 19 11 17 19 -2 8 0 11 4 7 4
-4 19 1 33 11 14 10 36 22 49 25 12 4 20 11 18 15 -5 8 142 6 173 -3z m221
-126 c0 -5 -5 -10 -11 -10 -5 0 -7 5 -4 10 3 6 8 10 11 10 2 0 4 -4 4 -10z
m510 -61 c0 -5 -4 -9 -10 -9 -5 0 -10 7 -10 16 0 8 5 12 10 9 6 -3 10 -10 10
-16z m-451 -59 c0 -10 -3 -8 -9 5 -12 27 -12 43 0 25 5 -8 9 -22 9 -30z m401
26 c0 -3 -4 -8 -10 -11 -5 -3 -10 -1 -10 4 0 6 5 11 10 11 6 0 10 -2 10 -4z
m70 -32 c0 -8 -5 -12 -10 -9 -6 4 -8 11 -5 16 9 14 15 11 15 -7z m-14 -55 c11
-12 11 -16 2 -16 -7 0 -17 -2 -23 -3 -30 -7 -46 1 -43 23 2 15 9 21 21 19 10
-2 17 4 18 15 1 15 2 15 6 -2 3 -11 11 -27 19 -36z m-451 -18 c3 -5 1 -12 -5
-16 -5 -3 -10 1 -10 9 0 18 6 21 15 7z m502 -73 c-3 -8 -6 -5 -6 6 -1 11 2 17
5 13 3 -3 4 -12 1 -19z m0 -40 c-3 -8 -6 -5 -6 6 -1 11 2 17 5 13 3 -3 4 -12
1 -19z m110 -230 c-3 -7 -5 -2 -5 12 0 14 2 19 5 13 2 -7 2 -19 0 -25z m-17 8
c0 -3 -4 -8 -10 -11 -5 -3 -10 -1 -10 4 0 6 5 11 10 11 6 0 10 -2 10 -4z m45
-16 c3 -5 1 -10 -4 -10 -6 0 -11 5 -11 10 0 6 2 10 4 10 3 0 8 -4 11 -10z m32
-322 c-3 -8 -6 -5 -6 6 -1 11 2 17 5 13 3 -3 4 -12 1 -19z m-1480 -220 c-3 -8
-6 -5 -6 6 -1 11 2 17 5 13 3 -3 4 -12 1 -19z m706 -193 c-3 -9 -8 -14 -10
-11 -3 3 -2 9 2 15 9 16 15 13 8 -4z m-1407 -172 c15 -15 16 -34 10 -172 -4
-86 -9 -187 -12 -226 -3 -38 -2 -92 2 -118 8 -62 27 -60 72 7 27 41 32 57 32
110 0 68 22 170 46 219 36 71 88 137 122 153 53 25 104 29 140 10 41 -21 52
-44 52 -103 -1 -86 -55 -174 -132 -214 l-38 -19 0 -86 c0 -77 2 -87 25 -109
13 -14 30 -25 37 -25 38 0 111 76 169 177 50 89 59 124 63 270 3 88 7 118 19
130 24 24 74 6 110 -40 29 -35 31 -45 36 -138 l6 -101 29 46 c99 158 209 151
231 -13 7 -50 9 -53 21 -35 77 107 140 146 202 123 42 -16 53 -64 45 -212 -6
-133 -6 -135 16 -142 24 -7 71 26 71 52 0 7 4 13 9 13 5 0 19 20 31 45 22 46
46 58 57 29 3 -9 -10 -39 -35 -75 -25 -36 -39 -66 -36 -77 5 -13 4 -14 -4 -3
-8 11 -12 10 -23 -6 -77 -104 -223 -48 -253 98 -8 40 -10 77 -5 99 12 49 11
80 -2 80 -6 0 -8 -7 -5 -16 3 -8 2 -13 -3 -10 -12 8 -31 -41 -25 -61 4 -13 3
-14 -3 -5 -7 9 -20 -11 -44 -70 -33 -81 -35 -83 -70 -86 -28 -2 -42 3 -68 27
l-32 30 6 108 c4 59 8 114 11 121 2 6 -1 12 -6 12 -15 0 -123 -228 -116 -245
3 -9 2 -14 -3 -11 -5 3 -14 -23 -21 -57 -6 -35 -15 -69 -20 -77 -12 -19 -80
-14 -110 8 -26 20 -44 79 -37 122 4 22 4 23 -7 6 -39 -65 -100 -138 -127 -152
-74 -38 -172 -13 -262 66 l-45 40 -12 -29 c-16 -39 -67 -90 -97 -97 -59 -15
-143 39 -159 103 -4 14 -5 64 -2 112 l5 86 -27 -85 c-31 -98 -49 -135 -86
-179 -48 -57 -119 -35 -154 49 -25 61 15 84 43 25 20 -41 43 -54 62 -34 29 30
87 188 126 347 23 92 45 175 51 185 19 37 95 49 124 20z"/>
<path d="M5930 4010 c-10 -6 -11 -10 -2 -10 6 0 12 -4 12 -9 0 -5 -8 -8 -17
-7 -21 1 -80 -83 -65 -93 7 -4 8 -12 2 -21 -9 -13 -10 -13 -10 0 -1 8 -8 2
-16 -13 -9 -16 -13 -35 -10 -43 3 -8 2 -13 -3 -9 -9 5 -16 -19 -45 -170 -40
-207 -59 -612 -36 -780 12 -86 40 -160 68 -181 9 -7 32 -14 50 -14 37 0 67 24
101 84 28 49 70 153 65 159 -2 2 2 17 11 33 18 34 19 48 4 38 -6 -3 -4 4 4 17
58 89 74 698 21 773 -8 11 -14 27 -13 36 0 11 3 9 10 -5 8 -17 9 -17 4 5 -2
14 -5 34 -6 45 -1 17 -2 16 -10 -5 -7 -21 -8 -18 -4 13 2 20 0 35 -5 32 -4 -3
-6 4 -3 15 3 12 -5 28 -23 46 -16 15 -23 24 -16 20 6 -4 12 -3 12 2 0 6 -7 13
-16 16 -8 3 -13 10 -10 15 3 5 -1 12 -10 15 -21 8 -26 7 -44 -4z m-49 -97
c-12 -20 -14 -14 -5 12 4 9 9 14 11 11 3 -2 0 -13 -6 -23z"/>
<path d="M5098 2472 c-27 -33 -68 -138 -68 -175 0 -20 1 -20 26 4 49 45 92
166 65 183 -4 3 -15 -2 -23 -12z"/>
<path d="M6450 4211 c0 -17 5 -31 10 -31 6 0 10 11 10 24 0 14 -4 28 -10 31
-6 4 -10 -7 -10 -24z"/>
<path d="M6731 3845 c0 -5 6 -21 14 -35 8 -14 14 -20 14 -15 0 6 -6 21 -14 35
-8 14 -14 21 -14 15z"/>
<path d="M6750 3760 c0 -5 5 -10 11 -10 5 0 7 5 4 10 -3 6 -8 10 -11 10 -2 0
-4 -4 -4 -10z"/>
<path d="M6780 3720 c0 -11 4 -20 8 -20 12 0 31 -80 21 -86 -5 -3 -9 -10 -9
-15 0 -6 5 -7 10 -4 7 4 9 -2 7 -17 -2 -12 -2 -17 0 -9 4 12 6 12 14 0 14 -23
-2 61 -23 119 -21 56 -28 64 -28 32z"/>
</g>
</svg>
